<svg id="svg" xmlns="http://www.w3.org/2000/svg" xmlns:xlink="http://www.w3.org/1999/xlink" width="400" height="277.27272727272725" viewBox="0, 0, 400,277.27272727272725"><g id="svgg"><path id="path0" d="M0.000 138.636 L 0.000 277.273 200.000 277.273 L 400.000 277.273 400.000 138.636 L 400.000 0.000 200.000 0.000 L 0.000 0.000 0.000 138.636 M148.318 59.951 C 169.765 62.208,182.578 68.215,205.209 86.623 C 211.488 91.730,218.714 97.610,221.267 99.688 C 223.820 101.766,230.762 107.408,236.694 112.225 L 247.479 120.983 249.854 119.427 C 252.383 117.770,252.630 117.570,293.500 84.091 C 308.149 72.091,320.718 62.140,321.431 61.979 C 322.846 61.658,323.415 92.142,322.032 94.152 C 321.664 94.685,310.318 104.112,296.818 115.100 C 283.318 126.088,268.051 138.538,262.890 142.767 C 250.368 153.027,248.092 154.587,246.753 153.826 C 246.130 153.472,230.593 140.961,212.227 126.023 C 168.677 90.603,165.376 88.617,146.108 86.249 C 92.428 79.652,54.333 134.433,78.069 184.091 C 95.689 220.955,144.191 232.341,178.702 207.714 C 185.745 202.688,183.821 202.233,195.025 211.577 C 206.309 220.988,205.966 219.561,198.409 225.638 C 150.315 264.315,80.156 249.471,53.603 195.000 C 20.883 127.879,74.009 52.130,148.318 59.951 M322.273 187.803 L 322.273 246.818 309.545 246.818 L 296.818 246.818 296.364 215.455 C 295.980 189.015,295.707 184.135,294.619 184.369 C 293.373 184.638,286.813 189.944,260.968 211.589 C 254.251 217.215,248.469 221.818,248.121 221.818 C 246.829 221.818,187.603 172.949,180.205 165.779 L 176.319 162.013 176.568 146.688 C 176.754 135.285,177.105 131.364,177.939 131.364 C 178.555 131.364,193.805 143.636,211.828 158.636 C 229.850 173.636,245.553 186.276,246.723 186.724 C 248.869 187.546,260.563 178.367,309.545 137.410 C 315.545 132.393,320.864 128.400,321.364 128.538 C 321.958 128.701,322.273 149.232,322.273 187.803 " stroke="none" fill="#000000" fill-rule="evenodd"></path></g></svg>